<?xml version="1.0"?>
<svg version="1.1" xmlns="http://www.w3.org/2000/svg" width="400" height="200" style="border: dashed 2px #aaa"><path fill="#f1f7f0" d="M33.91552734375,114.8505859375q0,3.5771484375-2.574462890625,5.63671875t-7.163330078125,2.0595703125q-4.2275390625,0-7.4794921875-1.58984375l0-5.203125q2.673828125,1.1923828125,4.525634765625,1.68017578125t3.387451171875,0.48779296875q1.8427734375,0,2.827392578125-0.70458984375t0.984619140625-2.095703125q0-0.77685546875-0.43359375-1.382080078125t-1.273681640625-1.165283203125t-3.423583984375-1.78857421875q-2.4208984375-1.13818359375-3.63134765625-2.18603515625t-1.93310546875-2.43896484375t-0.72265625-3.251953125q0-3.5048828125,2.375732421875-5.51025390625t6.567138671875-2.00537109375q2.0595703125,0,3.929443359375,0.48779296875t3.911376953125,1.373046875l-1.806640625,4.35400390625q-2.11376953125-0.8671875-3.495849609375-1.21044921875t-2.718994140625-0.34326171875q-1.58984375,0-2.43896484375,0.74072265625t-0.84912109375,1.93310546875q0,0.74072265625,0.34326171875,1.291748046875t1.093017578125,1.06591796875t3.550048828125,1.851806640625q3.70361328125,1.7705078125,5.07666015625,3.550048828125t1.373046875,4.363037109375z M51.905512695312,122.546875q-3.55908203125,0-5.58251953125-2.58349609375l-0.2890625,0q0.2890625,2.529296875,0.2890625,2.9267578125l0,8.18408203125l-5.51025390625,0l0-29.0869140625l4.48046875,0l0.77685546875,2.61962890625l0.2529296875,0q1.93310546875-2.9990234375,5.72705078125-2.9990234375q3.5771484375,0,5.6005859375,2.76416015625t2.0234375,7.67822265625q0,3.23388671875-0.948486328125,5.61865234375t-2.700927734375,3.63134765625t-4.119140625,1.24658203125z M50.279536132812,106.01611328125q-2.04150390625,0-2.98095703125,1.255615234375t-0.9755859375,4.146240234375l0,0.59619140625q0,3.251953125,0.966552734375,4.6611328125t3.062255859375,1.4091796875q3.70361328125,0,3.70361328125-6.1064453125q0-2.98095703125-0.912353515625-4.471435546875t-2.863525390625-1.490478515625z M63.879384765625,101.9873046875l6.0341796875,0l3.81201171875,11.36376953125q0.48779296875,1.4814453125,0.66845703125,3.5048828125l0.1083984375,0q0.19873046875-1.86083984375,0.77685546875-3.5048828125l3.73974609375-11.36376953125l5.90771484375,0l-8.54541015625,22.78173828125q-1.17431640625,3.16162109375-3.351318359375,4.7333984375t-5.085693359375,1.57177734375q-1.42724609375,0-2.80029296875-0.30712890625l0-4.3720703125q0.99365234375,0.23486328125,2.16796875,0.23486328125q1.46337890625,0,2.556396484375-0.894287109375t1.707275390625-2.700927734375l0.3251953125-0.99365234375z M107.27073730469,108.97900390625q0,6.91943359375-2.267333984375,10.24365234375t-6.982666015625,3.32421875q-4.57080078125,0-6.892333984375-3.4326171875t-2.321533203125-10.13525390625q0-6.99169921875,2.25830078125-10.306884765625t6.95556640625-3.315185546875q4.57080078125,0,6.910400390625,3.46875t2.339599609375,10.1533203125z M94.353256835938,108.97900390625q0,4.85986328125,0.840087890625,6.964599609375t2.827392578125,2.104736328125q1.951171875,0,2.818359375-2.1318359375t0.8671875-6.9375q0-4.85986328125-0.876220703125-6.982666015625t-2.809326171875-2.122802734375q-1.96923828125,0-2.818359375,2.122802734375t-0.84912109375,6.982666015625z M118.160625,111.86962890625l-6.50390625-9.88232421875l6.2509765625,0l3.92041015625,6.431640625l3.95654296875-6.431640625l6.2509765625,0l-6.576171875,9.88232421875l6.88330078125,10.31591796875l-6.26904296875,0l-4.24560546875-6.91943359375l-4.263671875,6.91943359375l-6.2509765625,0z M139.16770019531,122.185546875l9.91845703125-21.6796875l-13.02587890625,0l0-4.697265625l18.95166015625,0l0,3.5048828125l-9.99072265625,22.8720703125l-5.853515625,0z"/><path fill="#" d=""/></svg>
